<svg width="129" height="33" viewBox="0 0 129 33" fill="none" xmlns="http://www.w3.org/2000/svg">
<g clip-path="url(#clip0_218_453)">
<mask id="mask0_218_453" style="mask-type:alpha" maskUnits="userSpaceOnUse" x="0" y="-1" width="130" height="35">
<path d="M108.672 33H109.343V29.8176H109.355L110.472 33H111.053L112.171 29.8176H112.182V33H112.854V28.8764H111.872L110.788 32.1049H110.777L109.665 28.8764H108.672V33H108.672ZM104.953 29.5H106.228V33H106.933V29.5H108.215V28.8764H104.953V29.5H104.953ZM96.7532 33L129.003 4.32714e-05H109.593L77.344 33H96.7542H96.7532ZM92.1294 14.3715H53.0886C41.1905 14.3715 39.1082 15.0171 34.0116 20.2318C29.2453 25.109 21.5029 33.0006 21.5029 33.0006H38.4148L42.4494 28.8722C45.102 26.1579 46.4699 25.8768 52.0397 25.8768H80.8863L92.1286 14.3719L92.1294 14.3715ZM33.4913 17.8785C29.9714 21.2768 22.3124 28.8895 18.1844 33.0001H0.00292969C0.00292969 33.0001 14.5713 18.1359 22.6693 9.97935C31.012 1.8531 35.1705 -0.000396729 50.4731 -0.000396729H106.175L94.1149 12.3405H51.6051C40.8529 12.3405 38.4374 13.1029 33.4924 17.8783L33.4913 17.8785Z" fill="white"/>
</mask>
<g mask="url(#mask0_218_453)">
<path d="M108.672 33H109.343V29.8176H109.355L110.472 33H111.053L112.171 29.8176H112.182V33H112.854V28.8764H111.872L110.788 32.1049H110.777L109.665 28.8764H108.672V33H108.672ZM104.953 29.5H106.228V33H106.933V29.5H108.215V28.8764H104.953V29.5H104.953ZM96.7532 33L129.003 4.32714e-05H109.593L77.344 33H96.7542H96.7532ZM92.1294 14.3715H53.0886C41.1905 14.3715 39.1082 15.0171 34.0116 20.2318C29.2453 25.109 21.5029 33.0006 21.5029 33.0006H38.4148L42.4494 28.8722C45.102 26.1579 46.4699 25.8768 52.0397 25.8768H80.8863L92.1286 14.3719L92.1294 14.3715ZM33.4913 17.8785C29.9714 21.2768 22.3124 28.8895 18.1844 33.0001H0.00292969C0.00292969 33.0001 14.5713 18.1359 22.6693 9.97935C31.012 1.8531 35.1705 -0.000396729 50.4731 -0.000396729H106.175L94.1149 12.3405H51.6051C40.8529 12.3405 38.4374 13.1029 33.4924 17.8783L33.4913 17.8785Z" fill="white"/>
</g>
</g>
<defs>
<clipPath id="clip0_218_453">
<rect width="129" height="33" fill="white"/>
</clipPath>
</defs>
</svg>
